HIERARCHY
ROOT Hips
{
  OFFSET -125.086 92.215 135.881
  CHANNELS 6 Xposition Yposition Zposition Zrotation Xrotation Yrotation
  JOINT LeftUpLeg
  {
    OFFSET 8.64259 1.95398 -2.38835
    CHANNELS 3 Zrotation Xrotation Yrotation
    JOINT LeftLeg
    {
      OFFSET 43.7702 0 0
      CHANNELS 3 Zrotation Xrotation Yrotation
      JOINT LeftFoot
      {
        OFFSET 40.6238 0 0
        CHANNELS 3 Zrotation Xrotation Yrotation
        JOINT LeftToeBase
        {
          OFFSET 12.7242 0 0
          CHANNELS 3 Zrotation Xrotation Yrotation
          End Site
          {
            OFFSET 0 0 0
          }
        }
      }
    }
  }
  JOINT RightUpLeg
  {
    OFFSET -8.2249 1.95398 -2.59336
    CHANNELS 3 Zrotation Xrotation Yrotation
    JOINT RightLeg
    {
      OFFSET 43.5653 0 0
      CHANNELS 3 Zrotation Xrotation Yrotation
      JOINT RightFoot
      {
        OFFSET 40.6238 0 0
        CHANNELS 3 Zrotation Xrotation Yrotation
        JOINT RightToeBase
        {
          OFFSET 12.7242 0 0
          CHANNELS 3 Zrotation Xrotation Yrotation
          End Site
          {
            OFFSET 0 0 0
          }
        }
      }
    }
  }
  JOINT Spine
  {
    OFFSET 0.165834 0.87714 6.61349
    CHANNELS 3 Zrotation Xrotation Yrotation
    JOINT Spine1
    {
      OFFSET 7.38963 1.71661e-005 0
      CHANNELS 3 Zrotation Xrotation Yrotation
      JOINT Spine2
      {
        OFFSET 11.9445 1.14441e-005 0
        CHANNELS 3 Zrotation Xrotation Yrotation
        JOINT Spine3
        {
          OFFSET 14.7254 4.19617e-005 0
          CHANNELS 3 Zrotation Xrotation Yrotation
          JOINT Spine4
          {
            OFFSET 10.9679 0 0
            CHANNELS 3 Zrotation Xrotation Yrotation
            JOINT RightShoulder
            {
              OFFSET 2.46616 -1.6653 3.69651
              CHANNELS 3 Zrotation Xrotation Yrotation
              JOINT RightArm
              {
                OFFSET 13.0012 0 0
                CHANNELS 3 Zrotation Xrotation Yrotation
                JOINT RightForeArm
                {
                  OFFSET 28.7848 1.52588e-005 0
                  CHANNELS 3 Zrotation Xrotation Yrotation
                  JOINT RightHand
                  {
                    OFFSET 26.5688 1.52588e-005 0
                    CHANNELS 3 Zrotation Xrotation Yrotation
                    End Site
                    {
                      OFFSET 0 0 0
                    }
                  }
                }
              }
            }
            JOINT LeftShoulder
            {
              OFFSET 2.38034 -1.29275 -3.7523
              CHANNELS 3 Zrotation Xrotation Yrotation
              JOINT LeftArm
              {
                OFFSET 16.3182 6.10352e-005 0
                CHANNELS 3 Zrotation Xrotation Yrotation
                JOINT LeftForeArm
                {
                  OFFSET 27.0901 0 0
                  CHANNELS 3 Zrotation Xrotation Yrotation
                  JOINT LeftHand
                  {
                    OFFSET 24.5451 1.52588e-005 0
                    CHANNELS 3 Zrotation Xrotation Yrotation
                    End Site
                    {
                      OFFSET 0 0 0
                    }
                  }
                }
              }
            }
            JOINT Neck
            {
              OFFSET 5.0226 -0.0266342 0
              CHANNELS 3 Zrotation Xrotation Yrotation
              JOINT Head
              {
                OFFSET 6.69363 2.86102e-005 0
                CHANNELS 3 Zrotation Xrotation Yrotation
                End Site
                {
                  OFFSET 0 0 0
                }
              }
            }
          }
        }
      }
    }
  }
}
MOTION
Frames:	7
Frame Time:	0.0416667
16.638 77.2788 -14.3524 111.006 -34.3028 117.179 178.577 39.3436 83.8168 -76.3589 15.113 4.05727 59.3967 6.95661 18.6043 35.6312 -0.601791 0.285167 176.985 33.9233 72.3713 -73.9834 -11.6356 -4.28527 54.3192 2.31095 19.9495 60.5765 -5.62454 -3.4737 -0.593069 10.4555 -90.4776 5.95645 -1.38553 -0.898686 -5.71402 -1.42373 -0.83684 -28.2505 -1.0514 -1.27354 -8.23782 -1.05141 -1.27354 108.151 -46.5113 -72.4139 21.6534 -11.5255 15.0394 -3.68432 -6.07091 -52.1663 -6.87412 -0.141747 -2.99953 -78.4968 -42.6012 95.771 -10.9622 -13.2054 -9.02666 -0.256426 0.256859 -15.3278 10.1975 -0.810373 -10.8989 -2.81046 6.32479 -21.3027 -17.5324 4.13183 37.1157 
16.3208 76.0192 -0.3316 102.755 -19.3198 112.862 175.395 42.3661 90.1126 -89.0207 20.6898 5.39078 66.2265 13.5701 22.538 41.6117 -1.08866 0.208633 177.075 23.7353 73.0393 -37.8377 -20.9942 -5.68804 45.8678 5.38492 25.7736 81.7648 -10.9005 -6.1788 -0.797175 10.8034 -91.2752 5.23508 -2.12105 -2.45699 -6.43641 -2.2271 -2.3613 -28.9583 -1.28501 -2.98049 -8.94561 -1.28502 -2.98048 109.855 -48.0795 -69.8966 20.5252 -8.37007 21.4016 -6.66771 -10.1738 -48.8477 -4.45134 -0.117103 -3.0636 -79.6433 -43.1983 93.8888 -10.8437 -13.1006 -32.2721 -2.29904 -8.76862 -19.4246 9.93232 -0.924418 -12.257 -1.41773 7.70713 -24.4017 -19.0086 4.12627 46.9302 
14.0151 73.7481 12.4475 97.0007 -3.25394 109.08 174.538 49.6296 93.6548 -95.4666 20.6208 5.04785 69.6347 16.0043 19.3321 42.7464 -1.23269 2.81511 174.954 27.9745 74.0684 -52.9591 -18.6591 -3.52264 49.2369 4.50523 18.6063 77.5209 -9.59364 -5.17319 -1.18236 11.3041 -91.8265 4.20245 -3.10005 -3.56865 -7.46922 -3.25401 -3.42887 -29.9789 -1.88529 -4.33419 -9.96621 -1.88525 -4.33419 110.033 -48.5095 -69.6849 18.1529 -9.51323 19.52 -14.6823 -21.3801 -47.3465 0.660801 -0.00959392 -4.1465 -80.5923 -41.0629 92.1739 -11.7668 -11.2313 -43.0784 -1.6504 -2.31619 -44.8566 3.45005 -0.674617 -15.8116 5.35431 8.95997 -30.1222 -20.9196 5.52797 56.6687 
12.5386 73.5702 21.5401 90.955 5.84344 108.029 -167.279 55.4503 81.8723 -91.0428 17.7722 1.70964 68.639 13.8772 15.113 39.9341 -0.995957 3.14702 172.88 32.8142 76.8566 -65.0333 -14.443 -1.57688 66.3758 -2.02366 15.7677 71.2739 -9.16338 -8.55255 -1.27645 11.6644 -92.4058 3.44708 -3.50898 -4.71701 -8.22714 -3.71299 -4.55832 -30.7081 -1.93165 -5.5512 -10.6955 -1.93164 -5.55121 110.028 -50.018 -69.9229 8.56476 -1.26566 -3.82252 -11.0344 -39.3903 -28.9594 1.1154 0.0201501 -2.78274 -81.7594 -40.1789 90.1382 -19.2229 -6.95979 -48.8587 2.10048 0.0788675 -55.7657 3.94851 -0.814123 -17.4045 7.95853 10.3149 -32.4217 -19.5441 7.78302 63.2848 
12.4991 75.2109 27.0962 86.0119 7.10015 106.852 -151.368 54.6775 71.5394 -85.4586 10.7246 -1.52513 65.8048 11.8388 14.1319 46.417 -1.5233 -0.539871 173.227 38.34 78.9456 -67.8002 -11.742 -0.992151 64.8803 -1.05793 16.9092 75.7823 -8.47656 -3.01731 -1.19912 11.5035 -92.4202 3.77072 -3.36673 -4.73619 -7.90397 -3.57169 -4.58376 -30.3825 -1.79019 -5.52683 -10.3699 -1.79018 -5.52681 110.797 -51.6701 -69.0057 10.6443 10.6804 -30.4697 5.73642 -49.2938 0.00477544 -6.40593 -0.296826 0.235082 -82.0573 -43.8302 89.96 -20.8102 -2.51025 -46.2676 2.31602 3.45477 -45.3344 2.36987 -0.58903 -16.365 5.78518 12.0713 -32.0509 -19.7269 8.5646 63.9934 
13.4059 76.0922 30.5988 84.8272 6.46009 104.54 -153.5 55.8629 72.0146 -86.9292 9.59253 -0.717088 65.0928 12.4167 17.3156 55.455 -1.9891 2.21807 174.638 39.4158 79.5528 -69.6149 -9.09609 -1.57026 70.512 -3.0227 17.3377 71.5528 -8.0177 -4.32187 -0.710715 11.5604 -92.0728 3.69334 -2.25014 -4.05613 -7.98171 -2.42632 -3.95338 -30.4697 -0.928537 -4.54384 -10.4571 -0.928544 -4.54387 107.095 -46.5777 -74.1399 18.9753 8.12832 -40.2913 3.08945 -47.4526 -2.12331 -5.2262 -0.259573 0.679443 -81.6617 -46.6169 90.8203 -26.5986 -3.92814 -47.6652 4.36826 7.09492 -16.4756 8.09435 -0.882745 -12.9676 5.57706 12.8819 -31.8822 -17.0719 10.8437 65.0724 
15.207 77.178 31.5463 84.9316 4.96987 103.892 -158.846 57.0424 76.9584 -86.7737 7.19283 0.227017 66.5415 13.7431 17.5361 59.5479 -1.40705 7.99318 176.814 37.1455 79.2442 -67.4137 -9.2505 -2.68615 71.9363 -1.75908 23.5263 69.6828 -6.50471 0.0299541 -0.231212 11.7651 -91.9311 3.3073 -1.22894 -3.78426 -8.36839 -1.39422 -3.72663 -30.8595 -0.0357783 -3.97835 -10.8469 -0.0358134 -3.97839 104.564 -41.9466 -78.0037 22.1772 2.96812 -50.6774 -3.18323 -44.1929 -12.3913 -6.50966 -0.319236 0.605704 -80.6086 -50.5873 92.6971 -30.9455 -7.14276 -42.8419 7.24049 1.605 1.03202 11.1117 -0.947744 -11.4365 7.13079 13.5425 -30.4708 -14.9277 12.807 67.185 
